<svg xmlns="http://www.w3.org/2000/svg" width="193" height="25" fill="none" viewBox="0 0 193 25">
    <path fill="#ffffff" d="M75.174 9.635c-2.687-.399-3.272-.703-3.272-1.31 0-.608.759-1.119 2.546-1.119 1.405 0 2.86.352 4.14.879.333.128.633.272.934.416v-2.66c-.02-.01-.042-.018-.064-.025-1.408-.608-2.893-.926-4.855-.926-3.493 0-5.801 1.582-5.801 3.595 0 2.24 1.866 3.038 5.55 3.564 2.59.368 3.224.655 3.224 1.311 0 .736-.948 1.215-3.05 1.215-1.36 0-2.97-.378-4.349-.943-.342-.138-.79-.348-1.166-.551v2.66c.11.048.219.097.298.128 1.564.64 3.336 1.024 5.358 1.024 3.4 0 6.024-1.39 6.024-3.676 0-2.238-1.754-3.038-5.517-3.582zm-42.813-4.52c3.174 0 4.958 1.526 4.958 3.92 0 2.533-1.973 4.007-5.113 4.007h-3.448v3.625h-2.986V5.114h6.589zm-3.604 5.603h3.019c1.938 0 2.574-.624 2.574-1.63 0-.972-.704-1.63-2.437-1.63h-3.157v3.26zm16.556 5.95h-2.986V5.113h7.481c3.14 0 4.803 1.405 4.803 3.781 0 1.874-1.217 3.105-3.002 3.592l3.569 4.18h-3.414l-3.312-3.956h-3.14v3.956h.001zm0-6.193h3.775c1.664 0 2.504-.503 2.504-1.527 0-.972-.686-1.51-2.367-1.51h-3.913v3.037h.001zm18.102-5.36v11.552h-3.002V5.114h3.002zm26.354 0l3.998 7.857h.051l3.963-7.858h4.358v11.553h-2.951V8.046h-.035l-4.41 8.639h-2.126l-4.41-8.639h-.035v8.621H85.41V5.114h4.359zm27.561 9.489h-6.554l-1.012 2.064h-3.105l5.816-11.622h3.26l5.833 11.622h-3.225l-1.013-2.064zm-5.524-2.117h4.495L114.07 7.89h-.034l-2.23 4.597z"/>
    <path fill="#ffffff" d="M121.735 6.074V6.03c0-.246-.187-.419-.515-.419h-.571V6.94h.271v-.448h.303l.227.448h.299l-.278-.526c.169-.052.264-.18.264-.34zm-.815-.217h.3c.172 0 .243.057.243.188v.015c0 .116-.071.187-.243.187h-.3v-.39z"/>
    <path fill="#ffffff" d="M121.163 4.904c-.771 0-1.357.592-1.357 1.372 0 .78.586 1.372 1.357 1.372.772 0 1.358-.592 1.358-1.372 0-.78-.586-1.372-1.358-1.372zm0 2.556c-.671 0-1.157-.492-1.157-1.184 0-.694.486-1.184 1.157-1.184.672 0 1.158.492 1.158 1.184 0 .693-.486 1.184-1.158 1.184z"/>
    <path fill="#00BFE7" d="M12.362 16.667V5.093l5.981 11.574h-5.981zM12.362 5.093l-5.98 11.574h5.98V25L0 12.5l6.322-6.394 1.003-1.013L12.362 0v5.093z"/>
    <path fill="#ffffff" d="M25.839 21.525h1.95c.646 0 1.035.268 1.035.787 0 .35-.136.595-.521.72.398.16.588.371.588.742 0 .648-.49.88-1.172.88h-1.88v-3.13zm1.702 1.252c.257 0 .363-.081.363-.282 0-.188-.115-.268-.363-.268h-.787v.55h.787zm.045 1.168c.274 0 .38-.09.38-.296 0-.192-.106-.29-.38-.29h-.832v.59l.832-.004zm3.168-.291l-1.358-2.13h1.044l.765 1.248h.044l.774-1.247h1.017l-1.353 2.124v1.007h-.934v-1.002h.001zm4.708-2.13h1.828c.761 0 1.163.444 1.163 1.168 0 .819-.518 1.194-1.234 1.194h-.826v.77h-.93v-3.131zm1.664 1.625c.287 0 .41-.189.41-.434 0-.282-.136-.434-.42-.434h-.726v.868h.736zm2.833-1.624h1.495l1.075 3.13h-.974l-.217-.648H40.06l-.221.649h-.955l1.075-3.131zm.326 1.78h.832l-.332-.985h-.168l-.331.985zm3.06-1.78h.928v2.321h1.641l-.036.81h-2.534v-3.131zm3.177 1.565c0-1.019.686-1.659 1.77-1.659 1.083 0 1.769.64 1.769 1.66 0 1.018-.686 1.658-1.77 1.658s-1.769-.64-1.769-1.659zm2.615 0c0-.541-.31-.863-.845-.863-.536 0-.846.322-.846.863 0 .542.31.863.84.863.536 0 .85-.321.85-.863zm4.335-1.565h1.496l1.074 3.13h-.973l-.217-.648h-1.278l-.221.649h-.955l1.074-3.131zm.328 1.78h.831l-.332-.985h-.168l-.331.985zm3.058-1.78h.93v2.321h1.64l-.036.81h-2.534v-3.131zm3.868.804h-1.083l.036-.804h3.03l.036.804H61.66v2.325h-.932V22.33h-.003zm2.626.761c0-1.019.686-1.659 1.769-1.659 1.083 0 1.77.64 1.77 1.66 0 1.018-.687 1.658-1.77 1.658-1.085 0-1.77-.64-1.77-1.659zm2.614 0c0-.541-.31-.863-.845-.863-.535 0-.845.322-.845.863 0 .542.31.863.84.863.535 0 .85-.321.85-.863zm3.549-1.565h.964l1.332 1.775h.013v-1.775h.885v3.13h-.934l-1.362-1.82h-.014v1.82h-.884v-3.13zm4.297 0h2.707l.036.76h-1.819v.43h1.429v.693h-1.429v.488h1.872l-.036.761h-2.76v-3.132zm4.606.804h-1.084l.036-.804h3.03l.036.804h-1.083v2.325h-.933V22.33h-.002zm2.692-.804h.99l.505 2.174h.048l.656-2.174h.907l.641 2.174h.048l.496-2.174h.947l-.815 3.13h-1.216l-.567-1.887h-.027l-.575 1.888h-1.221l-.817-3.131zm5.845 1.565c0-1.019.686-1.659 1.769-1.659 1.083 0 1.77.64 1.77 1.66 0 1.018-.687 1.658-1.77 1.658s-1.77-.64-1.77-1.659zm2.614 0c0-.541-.31-.863-.845-.863-.536 0-.845.322-.845.863 0 .542.31.863.84.863.535 0 .85-.321.85-.863zm1.856-1.565h1.805c.823 0 1.225.394 1.225 1.122 0 .502-.204.841-.602 1.002l.734 1.007h-1.053l-.57-.824h-.61v.824h-.93v-3.131zm1.685 1.574c.31 0 .42-.175.42-.412s-.11-.406-.42-.406h-.756v.818h.756zm2.301-1.574h.93v1.154h.38l.906-1.154h1.044l.005.005-1.186 1.498 1.253 1.623-.005.005h-1.084l-.937-1.203h-.377v1.203h-.929v-3.131zm3.96 2.925v-.858h.006c.517.264 1.021.394 1.459.394.332 0 .5-.081.5-.237 0-.156-.111-.197-.774-.304-.725-.117-1.207-.336-1.207-.966 0-.586.508-1.038 1.503-1.038.399 0 .815.085 1.2.25v.85l-.005.005c-.368-.214-.863-.349-1.261-.349-.354 0-.496.085-.496.228 0 .184.217.201.761.296.726.125 1.208.33 1.208.993 0 .514-.38 1.03-1.473 1.03-.539-.003-.969-.116-1.42-.294zM128.241 10.913c0-3.233 2.191-6.165 6.509-6.165 1.895 0 3.412.716 4.252 1.383v2.6h-.016c-1.236-.833-2.455-1.65-4.285-1.65-2.471 0-3.856 1.634-3.856 3.817 0 2.082 1.286 3.715 3.84 3.715 1.796 0 3.098-.667 4.301-1.583h.016v2.6c-.807.615-2.406 1.315-4.498 1.315-4.435-.001-6.263-2.866-6.263-6.032zm13.758-5.898h2.538v9.297h6.575l-.083 2.366h-9.03V5.015zm10.249 5.832c0-3.7 2.456-6.098 6.345-6.098s6.344 2.399 6.344 6.098c0 3.698-2.455 6.097-6.344 6.097-3.889 0-6.345-2.399-6.345-6.097zm10.086 0c0-2.35-1.335-3.783-3.724-3.783-2.389 0-3.757 1.434-3.757 3.783 0 2.348 1.335 3.782 3.724 3.782 2.388 0 3.757-1.434 3.757-3.782zm5.222 1.332V5.015h2.538v7.048c0 1.9 1.434 2.516 2.982 2.516 1.549 0 2.983-.583 2.983-2.433V5.015h2.538v7.08c0 3.565-2.456 4.849-5.554 4.849-3.098 0-5.487-1.3-5.487-4.765zm13.991-7.164h5.652c3.625 0 5.8 2.165 5.8 5.814 0 3.633-2.175 5.848-5.8 5.848h-5.652V5.015zm5.636 9.347c2.043 0 3.213-1.083 3.213-3.5 0-2.398-1.17-3.53-3.213-3.53h-3.098v7.03h3.098z"/>
</svg>
